HIERARCHY
ROOT Hips
{
   OFFSET 0.00000 0.00000 0.00000
   CHANNELS 6 Xposition Yposition Zposition Zrotation Xrotation Yrotation
   JOINT Spine
   {
      OFFSET 0.000000 11.890501 0.000000
      CHANNELS 3 Zrotation Xrotation Yrotation
      JOINT Spine1
      {
         OFFSET -0.000000 25.657401 0.127660
         CHANNELS 3 Zrotation Xrotation Yrotation
         JOINT HEad
         {
            OFFSET 0.000000 8.734161 0.011340
            CHANNELS 3 Zrotation Xrotation Yrotation
            End Site
            {
               OFFSET -0.290000 12.774200 2.513950
            }
         }
         JOINT LeftShoulder1
         {
            OFFSET 8.990000 -0.362250 -0.220000
            CHANNELS 3 Zrotation Xrotation Yrotation
            JOINT LeftArm
            {
               OFFSET 10.282700 -0.003380 0.322120
               CHANNELS 3 Zrotation Xrotation Yrotation
               JOINT LeftForeArm
               {
                  OFFSET 32.766900 0.099140 -1.424340
                  CHANNELS 3 Zrotation Xrotation Yrotation
                  JOINT LeftHand
                  {
                     OFFSET 27.564301 0.085360 1.022160
                     CHANNELS 3 Zrotation Xrotation Yrotation
                     End Site
                     {
                        OFFSET 16.744301 -0.600000 1.502910
                     }
                  }
               }
            }
         }
         JOINT RightShoulder
         {
            OFFSET -8.990000 -0.362250 -0.220000
            CHANNELS 3 Zrotation Xrotation Yrotation
            JOINT RightArm
            {
               OFFSET -10.282700 -0.003380 0.322120
               CHANNELS 3 Zrotation Xrotation Yrotation
               JOINT RightForeArm
               {
                  OFFSET -32.897098 0.099140 -1.424340
                  CHANNELS 3 Zrotation Xrotation Yrotation
                  JOINT RightHand
                  {
                     OFFSET -27.492101 0.085360 1.022160
                     CHANNELS 3 Zrotation Xrotation Yrotation
                     End Site
                     {
                        OFFSET -16.631201 -0.600000 1.502910
                     }
                  }
               }
            }
         }
      }
   }
   JOINT LeftUpLeg
   {
      OFFSET 8.945800 -8.667070 0.101650
      CHANNELS 3 Zrotation Xrotation Yrotation
      JOINT LeftLeg
      {
         OFFSET 0.000000 -44.422697 1.372700
         CHANNELS 3 Zrotation Xrotation Yrotation
         JOINT LeftFoot
         {
            OFFSET -0.253550 -42.092399 -1.460590
            CHANNELS 3 Zrotation Xrotation Yrotation
            JOINT LeftToes
            {
               OFFSET -0.040000 -4.415090 8.499099
               CHANNELS 3 Zrotation Xrotation Yrotation
               End Site
               {
                  OFFSET 0.080000 -0.047450 9.779790
               }
            }
         }
      }
   }
   JOINT RightUpLeg
   {
      OFFSET -8.945800 -8.667070 0.101650
      CHANNELS 3 Zrotation Xrotation Yrotation
      JOINT RightLeg
      {
         OFFSET 0.000000 -44.422697 1.372700
         CHANNELS 3 Zrotation Xrotation Yrotation
         JOINT RightFoot
         {
            OFFSET 0.253550 -42.092399 -1.460590
            CHANNELS 3 Zrotation Xrotation Yrotation
            JOINT RightToes
            {
               OFFSET 0.040000 -4.415090 8.499099
               CHANNELS 3 Zrotation Xrotation Yrotation
               End Site
               {
                  OFFSET -0.080000 -0.137450 9.779790
               }
            }
         }
      }
   }
}
MOTION
Frames: 13
Frame Time: 0.016670
51.037468 101.706122 17.612259 2.302884 15.607325 138.784144 -15.614420 15.272650 16.813272 12.864112 31.834941 -35.371210 -2.896785 -14.285611 11.187422 -6.537007 -26.062451 10.839944 -126.691512 -8.409596 -127.783181 -78.898766 45.887704 21.470321 -45.391723 -31.591609 -61.304021 -48.657404 39.118460 83.425843 132.940698 131.372077 163.579329 10.410703 207.436301 81.812880 -21.000286 -20.200868 31.631730 10.576776 0.889626 -35.384420 -14.456994 -4.634340 114.363035 -3.663142 37.566420 8.463839 38.919610 5.062927 -20.493057 -2.861463 -7.492847 13.098020 7.961565 12.930949 24.471154 -44.675284 31.780054 15.357122 40.807915 -9.443132 -46.454934
51.142253 101.876143 18.130200 1.383303 22.602974 138.337299 -22.617111 18.116588 20.048122 14.229442 33.839025 -33.164144 -12.164468 -16.810441 9.797356 -2.659569 -27.732610 9.439806 -117.978226 -17.013822 -122.522023 -53.447975 40.859414 -6.935596 -45.454588 -33.194979 -61.930705 -52.695381 40.566758 85.493451 130.916012 132.150719 161.396031 8.393968 208.068299 83.578231 -34.515818 -17.075203 21.921902 6.501703 1.560562 -29.743425 -20.312574 1.878917 116.703317 -7.393827 37.018485 9.314659 41.387326 0.787705 -25.918410 -7.500306 -3.176395 15.753340 3.548279 14.796172 22.907701 -33.322150 31.004373 13.661078 29.451632 -9.076633 -45.462982
51.526441 101.747969 18.658974 -0.592707 32.590050 133.955856 -27.851370 20.120831 22.002643 13.018120 35.048856 -32.716063 -22.280507 -19.583291 8.961853 -1.437970 -27.051297 7.145508 -105.804746 -31.395173 -112.504035 -34.559214 33.518914 -27.696407 -47.338941 -34.967304 -62.854734 -56.630256 40.568790 87.105908 130.759068 131.165778 158.716726 8.880276 209.372523 88.340991 -13.564903 -24.105486 42.168410 0.203197 3.691955 -21.502136 -27.134236 7.384035 114.628688 -10.071105 36.874200 9.865900 40.317179 -1.226345 -25.150720 -14.784604 1.318245 19.371147 -0.618110 16.265385 20.833440 -23.919999 30.438335 12.441696 17.114180 -8.442068 -43.766595
52.063994 101.542071 18.887559 -1.126208 40.686972 128.538682 -33.043373 20.592004 25.967034 9.460428 37.301599 -29.486422 -32.213631 -22.423663 8.516052 -2.253888 -29.160386 1.723101 -92.645471 -42.732170 -99.001802 -23.346946 19.603324 -36.534497 -47.770346 -29.335861 -49.968756 -63.684554 40.422367 91.023124 131.948572 130.125253 155.171147 5.914031 211.412960 88.600927 -25.171347 -27.746952 37.026794 -4.186277 4.926690 -12.284058 -32.197737 13.251917 108.901567 -15.342722 36.305614 9.159778 29.817806 -7.779868 -32.416710 -20.785347 3.937835 21.711822 -2.862709 16.691886 17.990491 -15.279678 30.726521 11.431205 4.555886 -7.609213 -42.347637
52.668008 101.319960 18.980471 0.414527 46.618438 121.779281 -38.301597 20.590503 28.523664 5.976888 38.816744 -25.400184 -40.818577 -25.866577 8.303241 -4.619956 -30.909604 -4.250735 -75.551393 -53.529500 -83.324182 -18.776711 5.361301 -40.272735 -53.886091 -39.346452 -66.237351 -69.759946 40.491083 96.394644 134.552623 127.722639 150.823172 3.839644 211.083130 88.913579 -16.791779 -24.018242 38.837074 -5.347557 5.382502 -1.689242 -34.416674 20.565102 101.632416 -23.377023 34.734876 8.824661 37.990171 -8.492317 -21.646910 -27.301786 6.724720 23.550219 -1.153115 13.479691 14.450279 -9.281012 30.175547 10.644242 -7.982470 -8.435325 -40.310236
53.302273 101.046875 18.906859 2.937249 49.819154 115.457572 -44.622715 19.504152 28.803823 5.079131 37.352109 -19.694155 -46.245158 -28.844661 7.984207 -8.039735 -33.212065 -8.753388 -57.198934 -62.529050 -65.666012 -23.026144 -12.257853 -37.689257 -54.646940 -34.940420 -42.197151 -75.675156 38.241078 100.834165 137.092716 122.860992 146.674815 6.843727 210.450259 87.927819 -25.419427 -23.802618 35.430667 -5.188470 4.944411 8.306890 -31.035908 25.376453 92.142810 -23.117371 32.281933 6.494936 24.388258 -21.019026 -27.856493 -31.515558 8.501075 25.241029 0.022256 10.496327 11.326331 -3.008046 29.889311 9.735793 -20.229683 -9.548778 -38.607019
54.024777 100.464066 18.937777 6.705745 54.534228 111.730365 -48.725484 18.723222 27.248101 4.823601 36.762916 -14.667073 -50.121045 -30.638644 7.863873 -12.518667 -35.118637 -11.590785 -37.165668 -64.290276 -49.084738 -30.931963 -28.153490 -40.337612 -54.654552 -49.990954 -52.852373 -80.471349 37.694011 104.130072 140.687799 117.707423 143.151899 10.050572 208.840096 89.113014 -19.445745 -19.786546 38.038836 -4.072962 4.387545 19.172160 -27.102285 30.482844 84.760141 -23.282095 28.750196 5.020945 16.649250 -25.694052 -26.358687 -36.586386 12.084682 27.173247 0.191756 9.609185 8.721277 3.176039 29.430189 8.371434 -32.037982 -11.347781 -37.597213
54.844865 99.531182 19.022703 9.086951 57.197975 109.302800 -53.190552 20.032472 24.977262 3.397944 35.612408 -10.643586 -51.781962 -29.946684 7.714157 -19.114604 -37.657691 -14.534125 -21.359651 -60.106423 -33.464485 -37.782322 -43.983164 -46.068554 -59.860843 -51.012709 -34.077231 -83.180202 35.875770 105.949853 144.251806 113.373149 140.180057 11.183771 205.369704 87.178533 -23.786195 -20.476390 37.122775 1.022854 1.198367 29.684969 -22.165678 35.893204 77.864976 -23.817756 26.307172 4.111381 14.679246 -27.830132 -27.118622 -41.014808 13.707397 29.133776 1.506900 8.790437 7.018111 10.753777 28.208900 7.704068 -42.759013 -13.495933 -37.894754
55.725464 98.090809 19.211596 10.140421 58.163678 110.135038 -55.488296 21.247443 21.708028 3.343554 34.938760 -7.300698 -52.937487 -27.847369 7.870366 -22.980815 -39.255768 -18.938112 -6.826704 -49.392598 -23.459815 -43.373211 -55.930835 -54.850152 -62.458228 -61.621571 -44.874227 -85.559253 35.929630 106.758520 147.698702 109.514563 137.220823 11.584297 201.319238 85.410211 -20.034330 -18.965661 35.412495 7.435539 -3.857712 41.328337 -12.946283 39.221439 71.766054 -25.038012 22.185112 4.484138 22.023829 -31.180083 -24.906242 -42.871123 15.858302 33.387057 4.199175 9.192886 8.752764 -10.924423 27.515159 9.556530 -21.321397 -16.251016 -38.749367
56.420902 96.334914 19.113637 9.677803 58.856519 113.250144 -49.342513 20.761690 19.043773 0.315016 38.874544 -5.208342 -52.760643 -22.940568 8.413592 -27.867597 -37.460278 -24.819794 2.145603 -32.353015 -13.843454 -50.879380 -63.557424 -66.812747 -64.150393 -56.639870 -42.704795 -86.212062 35.859627 105.715749 151.761544 105.694978 136.040156 9.669574 196.609563 80.250010 -23.107828 -18.983278 29.047087 13.523447 -6.880539 49.761292 -5.742653 35.153594 61.928526 -25.595652 19.928868 1.837147 30.231387 -30.618539 -23.640586 -43.721895 17.540583 36.788970 8.529842 9.769502 10.224709 -31.710038 27.874777 11.510540 0.488720 -17.987272 -40.203607
56.866783 94.553097 18.415185 14.061091 56.506158 112.004044 -43.396560 22.464067 15.364463 0.081472 40.250274 -3.036661 -49.407912 -22.653719 8.892527 -23.335309 -44.896384 -27.623901 0.803144 -13.561469 -3.806531 -57.995321 -69.398164 -77.891006 -64.992160 -60.940512 -49.827739 -80.622371 37.450573 101.766390 160.523393 97.063921 128.764120 7.775282 192.495249 77.765563 -20.915786 -17.744309 28.771291 21.851093 -5.286004 54.155501 0.325962 21.861737 51.717011 -27.145516 20.605371 -1.442732 29.444959 -28.740049 -27.511167 -41.771320 18.443823 38.215438 13.210941 10.801670 9.625045 -27.901533 27.275321 11.290466 -3.733296 -18.986362 -42.852603
57.306179 93.240069 17.938726 24.574467 60.156379 105.282079 -38.623053 26.556126 12.434720 -3.132388 39.922862 -2.098143 -46.676755 -20.803494 9.089108 -23.125573 -51.194669 -28.955289 -5.268471 -1.363020 3.183062 -68.330565 -69.484764 -87.510071 -44.788679 -54.658538 -45.536926 -75.359410 35.088857 97.396073 167.543065 93.365776 122.173492 7.779311 191.369893 79.059720 -32.276636 -18.303326 45.724001 30.922421 -7.332429 59.874668 2.924206 21.451756 44.923879 -26.205499 24.630388 -1.487939 32.520733 -22.188220 -24.938537 -40.743926 23.651142 39.855277 12.256284 18.409870 6.541013 -24.509132 27.390379 9.028902 -7.662953 -18.099545 -46.167707
57.746586 91.873568 17.566194 34.962956 64.537563 95.792064 -28.662390 26.972798 10.496820 -5.853683 42.130994 0.087930 -46.525264 -17.204198 9.503945 -31.436219 -49.330450 -36.236824 -6.031945 -1.340119 3.339889 -76.809234 -68.620807 -92.566398 -55.384795 -58.531497 -40.079222 -76.605715 36.034306 99.309701 171.873050 95.991267 120.917339 5.026959 189.749485 76.538301 -14.147419 -22.440146 29.343784 42.830716 -12.109422 61.757785 4.619556 21.682239 38.473284 -23.968920 32.927321 -0.183963 35.130043 -15.649292 -27.432925 -46.082798 28.997858 39.943062 11.242451 18.463968 4.431926 -20.264596 26.573693 8.350660 -12.441780 -17.230001 -48.372069
